<?xml version="1.0" encoding="utf-8"?>
<!-- Generator: Adobe Illustrator 23.0.1, SVG Export Plug-In . SVG Version: 6.00 Build 0)  -->
<svg version="1.1" id="Layer_1" xmlns="http://www.w3.org/2000/svg" xmlns:xlink="http://www.w3.org/1999/xlink" x="0px" y="0px"
	 viewBox="0 0 1920 1080" style="enable-background:new 0 0 1920 1080;" xml:space="preserve">
<style type="text/css">
	.st0{fill:#F2F2F2;}
	.st1{fill:#FFFFFF;stroke:#000000;stroke-miterlimit:10;}
	.st2{fill:#D72D5C;}
	.st3{fill:#3B70A1;}
	.st4{opacity:0.19;}
	.st5{fill:none;stroke:#F2F2F2;stroke-width:29;stroke-linecap:round;stroke-linejoin:round;stroke-miterlimit:10;}
	.st6{fill:none;stroke:#000000;stroke-width:29;stroke-linecap:round;stroke-linejoin:round;stroke-miterlimit:10;}
</style>
<rect width="1920" height="1080"/>
<g>
	<g>
		<g>
			<path class="st0" d="M618.84,462.66l-0.26-42.27l-20.14,33.92h-13.78l-20.14-32.46v40.81h-28.49v-92.75h25.71l30.21,49.42
				l29.42-49.42h25.71l0.26,92.75H618.84z"/>
		</g>
		<g>
			<path class="st0" d="M688.93,369.91h31.27v92.75h-31.27V369.91z"/>
		</g>
		<g>
			<path class="st0" d="M853.23,369.91v92.75h-25.71l-35.25-42.14v42.14H761.8v-92.75h25.71l35.25,42.14v-42.14H853.23z"/>
		</g>
	</g>
	<g>
		<g>
			<path class="st0" d="M1091.41,709.05l-0.27-42.27l-20.14,33.92h-13.78l-20.14-32.46v40.81h-28.49v-92.75h25.71l30.21,49.42
				l29.42-49.42h25.71l0.27,92.75H1091.41z"/>
		</g>
		<g>
			<path class="st0" d="M1224.71,692.88h-35.25l-6.23,16.17h-31.8l40.55-92.75h30.74l40.55,92.75h-32.33L1224.71,692.88z
				 M1216.09,670.36l-9.01-23.32l-9.01,23.32H1216.09z"/>
		</g>
		<g>
			<path class="st0" d="M1348.2,709.05l-16.03-24.78l-15.64,24.78h-35.64l33.52-46.78l-32.33-45.98h35.12l15.77,23.32l15.37-23.32
				h33.66l-32.2,44.79l34.19,47.97H1348.2z"/>
		</g>
	</g>
	<g>
		<path class="st2" d="M699.42,540c0,0,57.83,290.19,115.67,290.19S930.76,540,930.76,540H699.42z"/>
		<path class="st3" d="M930.76,540c0,0,57.83-290.19,115.67-290.19c57.83,0,115.67,290.19,115.67,290.19H930.76z"/>
		<path class="st4" d="M930.76,540c0,0,32.84-203.57,90.68-203.57c57.83,0,112.5,203.57,112.5,203.57H930.76z"/>
		<path class="st4" d="M840.08,743.57c-57.83,0-112.5-203.57-112.5-203.57h-28.16c0,0,57.83,290.19,115.67,290.19
			c33.74,0,67.47-98.75,89.73-181.04C889.47,697.47,867.61,743.57,840.08,743.57z"/>
	</g>
	<g>
		<g>
			<g>
				<path class="st0" d="M1162.1,554.5H930.76c-4.34,0-8.46-1.95-11.21-5.3c-2.75-3.36-3.86-7.77-3.01-12.03
					c0.15-0.73,14.84-74.05,36.47-146.41c32.14-107.5,60.95-155.44,93.42-155.44c32.47,0,61.28,47.94,93.42,155.44
					c21.63,72.36,36.33,145.68,36.47,146.41c0.85,4.26-0.26,8.67-3.01,12.03C1170.56,552.55,1166.44,554.5,1162.1,554.5z
					 M948.64,525.5h195.59c-5.59-25.74-17.21-76.45-32.22-126.61c-12.35-41.29-24.5-74.03-36.12-97.33
					c-18.36-36.82-29.02-37.25-29.46-37.25s-11.1,0.42-29.46,37.25c-11.62,23.3-23.77,56.05-36.12,97.33
					C965.85,449.05,954.23,499.76,948.64,525.5z"/>
			</g>
		</g>
		<g>
			<g>
				<path class="st0" d="M815.09,844.69c-32.47,0-61.28-47.94-93.42-155.44c-21.63-72.36-36.33-145.68-36.47-146.41
					c-0.85-4.26,0.26-8.67,3.01-12.03c2.75-3.36,6.87-5.3,11.21-5.3h231.34c4.34,0,8.46,1.95,11.21,5.3
					c2.75,3.36,3.86,7.77,3.01,12.03c-0.15,0.73-14.84,74.05-36.47,146.41C876.37,796.75,847.56,844.69,815.09,844.69z M717.3,554.5
					c5.59,25.74,17.21,76.45,32.22,126.61c12.35,41.29,24.5,74.03,36.12,97.33c18.36,36.82,29.02,37.25,29.46,37.25
					c0.45,0,11.12-0.42,29.49-37.31c11.62-23.33,23.78-56.11,36.14-97.44c14.99-50.14,26.59-100.74,32.17-126.44H717.3z"/>
			</g>
		</g>
	</g>
</g>
</svg>
