<?xml version="1.0" encoding="utf-8"?>
<!-- Generator: Adobe Illustrator 23.0.1, SVG Export Plug-In . SVG Version: 6.00 Build 0)  -->
<svg version="1.1" id="Layer_1" xmlns="http://www.w3.org/2000/svg" xmlns:xlink="http://www.w3.org/1999/xlink" x="0px"
  y="0px" viewBox="0 0 1920 1080" style="enable-background:new 0 0 1920 1080;" xml:space="preserve">
  <style type="text/css">
    .st0 {
      fill: #currentColor;
    }

    .st1 {
      fill: transparent;
      stroke: currentColor;
      stroke-miterlimit: 10;
    }

    .st2 {
      fill: transparent;
    }

    .st3 {
      fill: transparent;
    }

    .st4 {
      opacity: 0.19;
    }

    .st5 {
      fill: none;
      stroke: transparent;
      stroke-width: 29;
      stroke-linecap: round;
      stroke-linejoin: round;
      stroke-miterlimit: 10;
    }

    .st6 {
      fill: none;
      stroke: transparent;
      stroke-width: 29;
      stroke-linecap: round;
      stroke-linejoin: round;
      stroke-miterlimit: 10;
    }
  </style>
  <rect class="st1" width="1920" height="1080" />
  <g>
    <g>
      <path d="M618.84,462.66l-0.26-42.27l-20.14,33.92h-13.78l-20.14-32.46v40.81h-28.49v-92.75h25.71l30.21,49.42l29.42-49.42h25.71
			l0.26,92.75H618.84z" />
      <path d="M688.93,369.91h31.27v92.75h-31.27V369.91z" />
      <path d="M853.23,369.91v92.75h-25.71l-35.25-42.14v42.14H761.8v-92.75h25.71l35.25,42.14v-42.14H853.23z" />
    </g>
    <g>
      <path d="M1091.41,709.05l-0.27-42.27l-20.14,33.92h-13.78l-20.14-32.46v40.81h-28.49v-92.75h25.71l30.21,49.42l29.42-49.42h25.71
			l0.27,92.75H1091.41z" />
      <path d="M1224.71,692.88h-35.25l-6.23,16.17h-31.8l40.55-92.75h30.74l40.55,92.75h-32.33L1224.71,692.88z M1216.09,670.36
			l-9.01-23.32l-9.01,23.32H1216.09z" />
      <path d="M1348.2,709.05l-16.03-24.78l-15.64,24.78h-35.64l33.52-46.78l-32.33-45.98h35.12l15.77,23.32l15.37-23.32h33.66
			l-32.2,44.79l34.19,47.97H1348.2z" />
    </g>
    <g>
      <path class="st6" d="M930.76,540c0,0,57.83-290.19,115.67-290.19c57.83,0,115.67,290.19,115.67,290.19H930.76z" />
      <path class="st6" d="M699.42,540c0,0,57.83,290.19,115.67,290.19c57.83,0,115.67-290.19,115.67-290.19H699.42z" />
    </g>
  </g>
</svg>
